<svg xmlns="http://www.w3.org/2000/svg" xmlns:xlink="http://www.w3.org/1999/xlink" width="3130" height="805" viewBox="0 0 3130 805">
  <defs>
    <clipPath id="clip-아트보드_21">
      <rect width="3130" height="805"/>
    </clipPath>
  </defs>
  <g id="아트보드_21" data-name="아트보드 – 21" clip-path="url(#clip-아트보드_21)">
    <path id="빼기_16" data-name="빼기 16" d="M3300,1146.114H0c0-19.623.723-39.466,2.147-58.979,1.413-19.37,3.557-38.953,6.372-58.2,2.794-19.108,6.324-38.406,10.493-57.359,4.141-18.824,9.023-37.814,14.51-56.44A874.515,874.515,0,0,1,74.181,805.3a949.383,949.383,0,0,1,55.484-105.3,1049.2,1049.2,0,0,1,69.481-100.187,1169.948,1169.948,0,0,1,82.649-94.5c29.475-30.306,61.433-59.992,94.986-88.232,33.467-28.169,69.3-55.552,106.494-81.39s76.617-50.724,117.173-73.972c40.655-23.305,83.391-45.5,127.023-65.979,43.844-20.575,89.616-39.89,136.043-57.409,46.76-17.645,95.287-33.882,144.233-48.262,49.4-14.514,100.4-27.481,151.595-38.54,51.768-11.184,104.97-20.686,158.127-28.242,26.824-3.813,54.162-7.2,81.253-10.079,27.286-2.9,55.069-5.348,82.577-7.289,27.715-1.955,55.908-3.444,83.794-4.426C1593.193.5,1621.761,0,1650,0s56.806.5,84.909,1.491c27.886.982,56.078,2.471,83.794,4.426,27.507,1.94,55.29,4.393,82.576,7.289,27.091,2.876,54.429,6.266,81.253,10.079,53.156,7.555,106.358,17.058,158.127,28.242,51.188,11.059,102.191,24.026,151.6,38.54,48.949,14.381,97.476,30.619,144.234,48.262,46.429,17.52,92.2,36.835,136.042,57.409,43.632,20.475,86.369,42.673,127.023,65.979,40.555,23.248,79.977,48.136,117.172,73.972s73.025,53.22,106.494,81.39c33.551,28.238,65.509,57.924,94.986,88.232a1169.875,1169.875,0,0,1,82.649,94.5,1049.287,1049.287,0,0,1,69.481,100.187,949.42,949.42,0,0,1,55.484,105.3,874.487,874.487,0,0,1,40.659,109.837c5.489,18.632,10.371,37.621,14.51,56.44,4.168,18.952,7.7,38.251,10.493,57.359,2.814,19.251,4.958,38.834,6.372,58.2C3299.278,1106.655,3300,1126.5,3300,1146.114Z" transform="translate(-85 23.82)" fill="#64e0e3"/>
  </g>
</svg>
