<svg xmlns="http://www.w3.org/2000/svg" xmlns:xlink="http://www.w3.org/1999/xlink" width="1920" height="2199" viewBox="0 0 1920 2199">
  <defs>
    <clipPath id="clip-path">
      <rect id="사각형_768" data-name="사각형 768" width="1920" height="2199" transform="translate(0 2760)" fill="#fff"/>
    </clipPath>
    <clipPath id="clip-아트보드_20">
      <rect width="1920" height="2199"/>
    </clipPath>
  </defs>
  <g id="아트보드_20" data-name="아트보드 – 20" clip-path="url(#clip-아트보드_20)">
    <g id="마스크_그룹_76" data-name="마스크 그룹 76" transform="translate(0 -2760)" clip-path="url(#clip-path)">
      <path id="패스_972" data-name="패스 972" d="M12913.667,5878.971s41.71,853.634-899.489,853.634-1115.244,445.363-1115.244,445.363l-6.991,792.345H12975.6V5849.955Z" transform="translate(-10910 -3519)" fill="#80eef2"/>
      <path id="빼기_30" data-name="빼기 30" d="M-9239.882,1503.522l-831.5-319.186v258.712h-488V997.01L-10908,863.19l160.35-406.372a192,192,0,0,1,16.033-14.345c6.327-5.171,13.266-10.422,20.622-15.61,9.259-6.529,19.2-12.98,29.544-19.173a613.765,613.765,0,0,1,87.4-42.851c18.756-7.492,38.483-14.418,58.636-20.584,22.184-6.79,45.435-12.833,69.109-17.961,17.843-3.865,36.315-7.3,54.9-10.2s37.782-5.353,57.079-7.29,39.2-3.408,59.17-4.376,40.555-1.459,61.176-1.459c25.088,0,50.978.726,76.951,2.158,26,1.433,52.8,3.612,79.651,6.477,20.354,2.172,41.238,4.791,62.073,7.786,21.354,3.066,43.3,6.62,65.223,10.564,22.483,4.046,45.5,8.6,68.422,13.543,23.5,5.061,47.61,10.683,71.675,16.71,24.593,6.157,49.815,12.91,74.968,20.072,25.72,7.322,52.069,15.271,78.318,23.627,26.825,8.541,54.316,17.752,81.71,27.379,28,9.837,56.646,20.373,85.151,31.317,19.464,7.471,39.048,14.578,58.21,21.123,19.143,6.538,38.4,12.7,57.237,18.308s37.753,10.819,56.252,15.493,37.1,8.94,55.252,12.677c18.172,3.74,36.42,7.058,54.238,9.861s35.73,5.174,53.213,7.044,35.034,3.292,52.172,4.227,34.335,1.409,51.119,1.409c28.377,0,56.634-1.355,83.984-4.026a797.358,797.358,0,0,0,80.874-12.081,752.98,752.98,0,0,0,77.7-20.139c12.621-4.008,25.285-8.413,37.642-13.091s24.745-9.761,36.825-15.107c19.914-8.813,39.685-18.655,58.764-29.253,18.255-10.14,36.369-21.245,53.841-33.006,16.682-11.232,33.193-23.339,49.076-35.985,15.139-12.051,30.1-24.9,44.466-38.178,49.8-46.026,95.177-99.562,134.885-159.122,15.6-23.4,30.347-47.792,43.839-72.507,10.793-19.772,20.809-39.79,29.769-59.5,7.952-17.492,13.6-31.552,16.945-40.267,3.592-9.372,5.363-14.779,5.371-14.807L-8226.771,2-8431,534.049h187.62v687h-451.334l-95.006,247.5h-450.157v34.976Z" transform="translate(10389.382 3351.953)" fill="#47e2e2" opacity="0.5"/>
      <rect id="사각형_767" data-name="사각형 767" width="1946" height="532.687" transform="translate(-26 4426.313)" fill="#53e0e3"/>
    </g>
  </g>
</svg>
