<svg xmlns="http://www.w3.org/2000/svg" xmlns:xlink="http://www.w3.org/1999/xlink" width="1920" height="1334" viewBox="0 0 1920 1334">
  <defs>
    <clipPath id="clip-path">
      <rect id="사각형_808" data-name="사각형 808" width="1920" height="1330" transform="translate(0 601)" fill="#fff" stroke="#707070" stroke-width="1"/>
    </clipPath>
    <clipPath id="clip-path-2">
      <rect id="사각형_721" data-name="사각형 721" width="2185" height="487" rx="243.5" fill="#53e0e3"/>
    </clipPath>
    <clipPath id="clip-path-3">
      <path id="합치기_16" data-name="합치기 16" d="M1023.121,1010.437C488.282,749.445,89.5,976.748,89.5,976.748V579H0V0H483V395.119H2019.852v615.318s-205.314,115.98-500.611,115.995C1371.564,1126.439,1201.424,1097.444,1023.121,1010.437Z" transform="translate(0 0)" fill="#64e0e3"/>
    </clipPath>
    <clipPath id="clip-아트보드_30">
      <rect width="1920" height="1334"/>
    </clipPath>
  </defs>
  <g id="아트보드_30" data-name="아트보드 – 30" clip-path="url(#clip-아트보드_30)">
    <g id="마스크_그룹_90" data-name="마스크 그룹 90" transform="translate(0 -597)" clip-path="url(#clip-path)">
      <g id="그룹_860" data-name="그룹 860" transform="translate(-9.43 -9689.716)">
        <g id="마스크_그룹_72" data-name="마스크 그룹 72" transform="translate(-167 10884.634)" clip-path="url(#clip-path-2)">
          <path id="패스_964" data-name="패스 964" d="M-15795.605,8111.473s271.6-137.358,454.26,108.722,172.371,257.578,342.17,275.978c72.844,7.893-54.145,21.113-223.121,33.651-224.426,16.653-523.078,32.088-523.078,32.088s-231.391-186.436-228.346-194.6,60.895-253.118,66.98-255.839S-15795.605,8111.473-15795.605,8111.473Z" transform="translate(15857.816 -8013.418)" fill="#53e0e3"/>
        </g>
        <path id="패스_958" data-name="패스 958" d="M1266.7,119.306S1108.214-25.222,793.673,3.868C407.654,59.141,487.913,289.653,111,275.28c-2.295,1.567-4.555,3.126-6.887,4.755C-448.327,665.926,1377.675,538.7,1377.675,538.7Z" transform="matrix(0.985, 0.174, -0.174, 0.985, 1191.138, 10383)" fill="#d3f9fb"/>
        <rect id="사각형_720" data-name="사각형 720" width="2115" height="1107.775" transform="translate(-97.5 10824.822)" fill="#63e7e9"/>
        <path id="빼기_18" data-name="빼기 18" d="M1939.352,717.44H0V186.918c.16-.118,16.282-11.976,44.155-29.206,16.458-10.174,33.79-20.246,51.516-29.936,22.155-12.111,44.991-23.657,67.874-34.317,58.245-27.132,117.13-48.75,175.018-64.253,16.738-4.483,33.61-8.505,50.148-11.956,17.412-3.634,34.939-6.735,52.094-9.218,17.992-2.6,36.069-4.6,53.73-5.933C513,.706,531.529,0,549.6,0c18.846,0,37.719.767,56.1,2.281,19.117,1.574,38.23,4,56.814,7.208,19.287,3.331,38.541,7.6,57.229,12.684,19.361,5.27,38.65,11.564,57.332,18.708a612.589,612.589,0,0,1,57.137,25.28,634.486,634.486,0,0,1,56.631,32.4,676.589,676.589,0,0,1,55.824,40.069c18.611,14.833,37.02,31.078,54.711,48.286,118.742,115.505,254.24,200.012,402.729,251.174,15.871,5.468,32.1,10.621,48.236,15.315,15.531,4.517,31.383,8.728,47.113,12.517,29.564,7.121,59.865,13.033,90.059,17.573a1065.728,1065.728,0,0,0,157.941,11.823c26.672,0,53.357-1.027,79.313-3.052,20.768-1.62,41.117-3.879,60.484-6.714,32.967-4.825,51.914-9.717,52.1-9.766l0,241.652,0,0h0Z" transform="translate(-6.002 10290.329)" fill="#63e7e9"/>
        <g id="마스크_그룹_70" data-name="마스크 그룹 70" transform="translate(-88 10383)" clip-path="url(#clip-path-3)">
          <path id="패스_949" data-name="패스 949" d="M65.207,29.016S21.293,882.65,1012.222,882.65s1174.169,445.362,1174.169,445.362l7.361,792.345H0V0Z" transform="matrix(0.985, -0.174, 0.174, 0.985, -2858.933, -440.651)" fill="#80eef2"/>
        </g>
      </g>
      <path id="빼기_36" data-name="빼기 36" d="M2950.639,1554.746a16.875,16.875,0,0,1-6.333-1.292,29.329,29.329,0,0,1-8.418-5.524,65.738,65.738,0,0,1-9.182-10.59c-6.693-9.364-13.638-22.651-20.642-39.492-4.332-10.415-11.518-24.491-20.782-40.708-10.639-18.628-23.284-38.83-37.583-60.046-16.453-24.412-34.522-49.28-53.7-73.915-21.877-28.093-45.142-55.789-69.149-82.318-57.2-63.209-118.4-119.727-181.9-167.982-17.788-13.516-35.978-26.539-54.065-38.706-18.885-12.705-38.174-24.825-57.331-36.024-19.943-11.659-40.3-22.648-60.511-32.659-21-10.4-42.4-20.028-63.608-28.609-24.789-10.032-50.048-18.94-75.077-26.474-25.005-7.527-50.466-13.89-75.674-18.912s-50.831-8.838-76.2-11.349-51.145-3.783-76.64-3.783c-22.544,0-45.45,1-68.082,2.959s-45.622,4.951-68.318,8.877-45.756,8.907-68.5,14.8c-22.763,5.894-45.855,12.864-68.635,20.717-15.948,5.5-32.1,11.551-48.02,17.988-16.162,6.537-32.558,13.664-48.735,21.185-16.39,7.62-33.024,15.864-49.438,24.5-16.642,8.758-33.509,18.158-50.132,27.938-25.333,14.9-51.085,29.232-76.541,42.586-24.889,13.057-50.168,25.536-75.133,37.091-24.405,11.3-49.178,22.019-73.63,31.871-23.871,9.619-48.106,18.679-72.032,26.93l-.094.033c-19.191,6.616-38.686,12.883-57.944,18.625-18.828,5.615-37.96,10.884-56.867,15.662-18.483,4.669-37.207,8.984-55.652,12.824-18.048,3.757-36.349,7.17-54.395,10.143-34.819,5.736-70.091,10.067-104.837,12.874-33.006,2.666-66.407,4.027-99.274,4.043h-.61a1204.893,1204.893,0,0,1-333.805-46.917A1169.992,1169.992,0,0,1,348.5,1137.428c-32.163-13.373-63.3-28.067-92.537-43.676-26-13.88-45.672-25.934-57.592-33.6-12.845-8.264-19.759-13.4-19.824-13.443L0,640.334,388.186,506.513V60.476H931.573V319.187L1857.45,0V34.976H2358.7l105.79,247.5h502.56v687H2758.137l227.415,532.048a165.838,165.838,0,0,1-7.534,23.629,88.1,88.1,0,0,1-9.356,17.684c-4.129,5.783-8.512,9.505-13.028,11.063A15.314,15.314,0,0,1,2950.639,1554.746Z" transform="translate(2430.377 2486.997) rotate(177)" fill="#53e0e3" opacity="0.9"/>
    </g>
  </g>
</svg>
