<svg xmlns="http://www.w3.org/2000/svg" xmlns:xlink="http://www.w3.org/1999/xlink" width="377" height="377" viewBox="0 0 377 377">
  <defs>
    <clipPath id="clip-아트보드_32">
      <rect width="377" height="377"/>
    </clipPath>
  </defs>
  <g id="아트보드_32" data-name="아트보드 – 32" clip-path="url(#clip-아트보드_32)">
    <g id="그룹_834" data-name="그룹 834" transform="translate(62.5 107.608)">
      <g id="그룹_125" data-name="그룹 125" transform="translate(0)">
        <path id="패스_112" data-name="패스 112" d="M874.188,4902.507l118.968-52.6a6.933,6.933,0,0,0,4.131-6.342V4793.66l-123.1,51.932" transform="translate(-748.187 -4740.723)" fill="#1ecdd1"/>
        <path id="패스_113" data-name="패스 113" d="M955.318,4880.682a2.869,2.869,0,0,1-1.092-.213l-123.1-50.035a2.9,2.9,0,0,1,0-5.374l123.1-50.039a2.908,2.908,0,0,1,2.182,0l123.1,50.039a2.9,2.9,0,0,1,0,5.374l-123.1,50.035A2.856,2.856,0,0,1,955.318,4880.682Zm-115.4-52.936,115.4,46.91,115.4-46.91-115.4-46.91Z" transform="translate(-829.316 -4774.808)" stroke="#000" stroke-width="1"/>
        <path id="패스_114" data-name="패스 114" d="M955.318,4859.079a2.865,2.865,0,0,1-1.092-.216l-123.1-50.036a2.9,2.9,0,1,1,2.182-5.371l122.01,49.594,122.007-49.594a2.9,2.9,0,0,1,2.184,5.371l-123.1,50.036A2.851,2.851,0,0,1,955.318,4859.079Z" transform="translate(-829.317 -4723.396)" stroke="#000" stroke-width="1"/>
        <path id="패스_115" data-name="패스 115" d="M854.825,4841.4a2.9,2.9,0,0,1-1.227-5.526L966.134,4783.4a2.9,2.9,0,0,1,2.448,5.256l-112.536,52.475A2.919,2.919,0,0,1,854.825,4841.4Z" transform="translate(-788.445 -4759.764)" stroke="#000" stroke-width="1"/>
        <path id="패스_116" data-name="패스 116" d="M974.3,4838.691a2.859,2.859,0,0,1-1.115-.225l-117.469-48.989a2.9,2.9,0,0,1,2.232-5.349l117.469,48.99a2.9,2.9,0,0,1-1.118,5.573Z" transform="translate(-784.815 -4758.36)" stroke="#000" stroke-width="1"/>
        <path id="패스_117" data-name="패스 117" d="M897.12,4857.4a2.9,2.9,0,0,1-2.9-2.9v-48.174a2.9,2.9,0,1,1,5.8,0V4854.5A2.9,2.9,0,0,1,897.12,4857.4Z" transform="translate(-711.965 -4723.054)" stroke="#000" stroke-width="1"/>
      </g>
      <path id="패스_118" data-name="패스 118" d="M856.828,4857.4a2.9,2.9,0,0,1-2.9-2.9v-48.174a2.9,2.9,0,1,1,5.8,0V4854.5A2.9,2.9,0,0,1,856.828,4857.4Z" transform="translate(-784.815 -4723.056)" stroke="#000" stroke-width="1"/>
    </g>
  </g>
</svg>
