<svg xmlns="http://www.w3.org/2000/svg" xmlns:xlink="http://www.w3.org/1999/xlink" width="377" height="377" viewBox="0 0 377 377">
  <defs>
    <clipPath id="clip-아트보드_30">
      <rect width="377" height="377"/>
    </clipPath>
  </defs>
  <g id="아트보드_30" data-name="아트보드 – 30" clip-path="url(#clip-아트보드_30)">
    <g id="그룹_832" data-name="그룹 832" transform="translate(111.249 59.739)">
      <path id="패스_144" data-name="패스 144" d="M646.975,4777.132c-12.481,0-25.115-3.932-25.115-11.447s12.634-11.448,25.115-11.448,25.118,3.932,25.118,11.448S659.456,4777.132,646.975,4777.132Zm0-17.552c-12.264,0-19.773,3.952-19.773,6.1s7.509,6.1,19.773,6.1,19.773-3.953,19.773-6.1S659.241,4759.581,646.975,4759.581Z" transform="translate(-588.319 -4754.237)" stroke="#000" stroke-width="1"/>
      <path id="패스_145" data-name="패스 145" d="M667.557,4872.273c-32.492,0-58.656-14.8-58.656-27.064a2.673,2.673,0,0,1,5.345,0c0,7.632,21.983,21.721,53.31,21.721s53.311-14.089,53.311-21.721a2.672,2.672,0,0,1,5.345,0C726.213,4857.469,700.049,4872.273,667.557,4872.273Z" transform="translate(-608.901 -4613.982)" stroke="#000" stroke-width="1"/>
      <path id="패스_146" data-name="패스 146" d="M667.557,4843.669c-28.434,0-58.656-7.473-58.656-21.333a2.673,2.673,0,0,1,5.345,0c0,7.548,22.8,15.993,53.31,15.993s53.311-8.445,53.311-15.993a2.672,2.672,0,0,1,5.345,0C726.213,4836.2,695.993,4843.669,667.557,4843.669Z" transform="translate(-608.901 -4650.312)" stroke="#000" stroke-width="1"/>
      <path id="패스_147" data-name="패스 147" d="M667.557,4822.844c-28.434,0-58.656-7.474-58.656-21.33a2.673,2.673,0,1,1,5.345,0c0,7.549,22.8,15.989,53.31,15.989s53.311-8.439,53.311-15.989a2.672,2.672,0,1,1,5.345,0C726.213,4815.37,695.993,4822.844,667.557,4822.844Z" transform="translate(-608.901 -4683.392)" stroke="#000" stroke-width="1"/>
      <path id="패스_148" data-name="패스 148" d="M646.975,4784.347c-12.481,0-25.115-3.932-25.115-11.449a2.671,2.671,0,0,1,5.343,0c0,2.151,7.509,6.1,19.773,6.1s19.773-3.953,19.773-6.1a2.673,2.673,0,0,1,5.345,0C672.092,4780.416,659.456,4784.347,646.975,4784.347Z" transform="translate(-588.319 -4728.841)" stroke="#000" stroke-width="1"/>
      <path id="패스_149" data-name="패스 149" d="M624.53,4784.722a2.674,2.674,0,0,1-2.671-2.675v-14.906a2.671,2.671,0,1,1,5.343,0v14.906A2.674,2.674,0,0,1,624.53,4784.722Z" transform="translate(-588.319 -4737.988)" stroke="#000" stroke-width="1"/>
      <path id="패스_150" data-name="패스 150" d="M641.872,4784.722a2.674,2.674,0,0,1-2.671-2.675v-14.906a2.672,2.672,0,1,1,5.345,0v14.906A2.676,2.676,0,0,1,641.872,4784.722Z" transform="translate(-560.773 -4737.988)" stroke="#000" stroke-width="1"/>
      <path id="패스_151" data-name="패스 151" d="M611.6,4838.5a2.673,2.673,0,0,1-2.671-2.673V4804.21a2.655,2.655,0,0,1,.722-1.825l22.781-24.3a2.672,2.672,0,0,1,3.9,3.657l-22.059,23.526v30.558A2.672,2.672,0,0,1,611.6,4838.5Z" transform="translate(-608.857 -4717.702)" stroke="#000" stroke-width="1"/>
      <path id="패스_152" data-name="패스 152" d="M669.743,4838.5a2.675,2.675,0,0,1-2.674-2.673V4803.85l-23.453-21.989a2.671,2.671,0,1,1,3.652-3.9l24.3,22.781a2.668,2.668,0,0,1,.844,1.947v33.134A2.673,2.673,0,0,1,669.743,4838.5Z" transform="translate(-555.103 -4717.702)" stroke="#000" stroke-width="1"/>
      <path id="패스_153" data-name="패스 153" d="M611.6,4911.375a2.674,2.674,0,0,1-2.671-2.676V4805.242a2.671,2.671,0,1,1,5.342,0V4908.7A2.674,2.674,0,0,1,611.6,4911.375Z" transform="translate(-608.857 -4677.473)" stroke="#000" stroke-width="1"/>
      <path id="패스_154" data-name="패스 154" d="M654.832,4911.375a2.676,2.676,0,0,1-2.674-2.676V4805.242a2.673,2.673,0,1,1,5.345,0V4908.7A2.674,2.674,0,0,1,654.832,4911.375Z" transform="translate(-540.192 -4677.473)" stroke="#000" stroke-width="1"/>
      <path id="패스_155" data-name="패스 155" d="M674.144,4906.477H652.158v-5.342h21.986c8.047,0,14.593-9.106,14.593-20.3v-62.3c0-11.192-6.546-20.3-14.593-20.3H652.158v-5.343h21.986c10.993,0,19.939,11.5,19.939,25.644v62.3C694.083,4894.975,685.137,4906.477,674.144,4906.477Z" transform="translate(-540.192 -4692.835)" stroke="#000" stroke-width="1"/>
      <path id="패스_156" data-name="패스 156" d="M659.556,4867.234h-4.724a2.673,2.673,0,1,1,0-5.346h4.724c5.785,0,10.491-6.7,10.491-14.936v-24.384c0-8.237-4.706-14.938-10.491-14.938h-4.724a2.671,2.671,0,1,1,0-5.343h4.724c8.73,0,15.836,9.1,15.836,20.281v24.384C675.392,4858.139,668.286,4867.234,659.556,4867.234Z" transform="translate(-540.192 -4677.913)" stroke="#000" stroke-width="1"/>
      <path id="패스_157" data-name="패스 157" d="M615.606,4793.886l-.427,23.5a4.894,4.894,0,0,0,3,4.685c6.732,2.666,15.859,4.582,26.156,5.311a4.775,4.775,0,0,0,4.98-4.811l.438-24.017a4.8,4.8,0,0,0-4.3-4.974,112.053,112.053,0,0,1-23.881-4.306A4.7,4.7,0,0,0,615.606,4793.886Z" transform="translate(-598.931 -4698.911)" fill="#1ecdd1"/>
      <path id="패스_158" data-name="패스 158" d="M615.543,4814.5l-.427,23.5a4.894,4.894,0,0,0,3,4.685c6.73,2.66,15.859,4.583,26.153,5.3a4.766,4.766,0,0,0,4.983-4.806l.437-24.02a4.8,4.8,0,0,0-4.3-4.974,111.968,111.968,0,0,1-23.878-4.3A4.7,4.7,0,0,0,615.543,4814.5Z" transform="translate(-599.032 -4666.172)" fill="#1ecdd1"/>
      <path id="패스_159" data-name="패스 159" d="M614.878,4838.381l.546,21.951c-.041,2.2,1.781,4,3.1,4.807,3.981,2.443,10.393,7.891,26.748,8.679a5.08,5.08,0,0,0,5.273-5.086l.461-25.414a5.077,5.077,0,0,0-4.55-5.258,118.746,118.746,0,0,1-25.263-4.557A4.968,4.968,0,0,0,614.878,4838.381Z" transform="translate(-599.407 -4628.674)" fill="#1ecdd1"/>
    </g>
  </g>
</svg>
