<svg xmlns="http://www.w3.org/2000/svg" xmlns:xlink="http://www.w3.org/1999/xlink" width="377" height="377" viewBox="0 0 377 377">
  <defs>
    <clipPath id="clip-아트보드_34">
      <rect width="377" height="377"/>
    </clipPath>
  </defs>
  <g id="아트보드_34" data-name="아트보드 – 34" clip-path="url(#clip-아트보드_34)">
    <g id="그룹_121" data-name="그룹 121" transform="translate(63.848 91.33)">
      <path id="패스_119" data-name="패스 119" d="M1338.722,4869.046v47.688a7.893,7.893,0,0,0,11.939,6.779l122.969-73.36a7.892,7.892,0,0,0,3.85-6.777V4790.9Z" transform="translate(-1231.967 -4728.838)" fill="#1ecdd1"/>
      <path id="패스_120" data-name="패스 120" d="M1385.932,4809.186" transform="translate(-1146.116 -4695.585)" fill="none" stroke="#000" stroke-linecap="round" stroke-linejoin="round" stroke-width="1"/>
      <path id="패스_121" data-name="패스 121" d="M1390.273,4871.882a2.887,2.887,0,0,1-1.451-.39l-85.167-49.133a2.91,2.91,0,0,1,2.909-5.04l85.165,49.134a2.908,2.908,0,0,1-1.455,5.429Z" transform="translate(-1298.384 -4681.501)" stroke="#000" stroke-width="1"/>
      <path id="패스_122" data-name="패스 122" d="M1407.6,4911.988a15.937,15.937,0,0,1-7.822-1.9l-94.841-54.711c-2.6-1.5-4.093-3.762-4.093-6.2s1.491-4.689,4.093-6.19l127.716-72.227a17.062,17.062,0,0,1,15.618.016l94.815,53.24c2.63,1.519,4.121,3.774,4.121,6.21s-1.491,4.694-4.093,6.192h0l-127.7,73.666A15.922,15.922,0,0,1,1407.6,4911.988Zm32.842-137.3a10.13,10.13,0,0,0-4.9,1.131l-127.715,72.225c-.958.558-1.159,1.041-1.159,1.139s.2.59,1.18,1.153l94.841,54.715a11.223,11.223,0,0,0,9.825,0l127.693-73.665c.981-.568,1.181-1.056,1.181-1.154s-.2-.586-1.181-1.152l-94.812-53.241A10.207,10.207,0,0,0,1440.442,4774.688Zm101.219,59.216h0Z" transform="translate(-1300.846 -4768.881)" stroke="#000" stroke-width="1"/>
      <path id="패스_123" data-name="패스 123" d="M1407.6,4884.511a21.825,21.825,0,0,1-10.711-2.6l-93.836-56.236a2.911,2.911,0,0,1,2.993-4.993l93.792,56.212c4.194,2.417,11.35,2.419,15.586-.022l130.221-76.979a2.909,2.909,0,1,1,2.959,5.009L1418.356,4881.9A21.892,21.892,0,0,1,1407.6,4884.511Z" transform="translate(-1299.406 -4713.223)" stroke="#000" stroke-width="1"/>
      <path id="패스_124" data-name="패스 124" d="M1429.213,4844.548a2.9,2.9,0,0,1-1.432-.381l-99.632-56.444a2.91,2.91,0,0,1,2.869-5.063l99.632,56.445a2.912,2.912,0,0,1-1.437,5.443Z" transform="translate(-1253.876 -4744.511)" stroke="#000" stroke-width="1"/>
      <path id="패스_125" data-name="패스 125" d="M1322.5,4862.137a2.911,2.911,0,0,1-1.454-5.433l134.909-77.826a2.909,2.909,0,0,1,2.906,5.041l-134.908,77.83A2.921,2.921,0,0,1,1322.5,4862.137Z" transform="translate(-1266.768 -4751.411)" stroke="#000" stroke-width="1"/>
      <path id="패스_126" data-name="패스 126" d="M1322.494,4868.492a2.909,2.909,0,0,1-2.909-2.909V4809.44a2.91,2.91,0,0,1,5.821,0v56.143A2.91,2.91,0,0,1,1322.494,4868.492Z" transform="translate(-1266.769 -4700.409)" stroke="#000" stroke-width="1"/>
      <path id="패스_127" data-name="패스 127" d="M1365.627,4863.247a2.909,2.909,0,0,1-2.909-2.908V4807a2.909,2.909,0,1,1,5.818,0v53.341A2.908,2.908,0,0,1,1365.627,4863.247Z" transform="translate(-1188.33 -4704.857)" stroke="#000" stroke-width="1"/>
      <path id="패스_128" data-name="패스 128" d="M1348.742,4818.616a4.806,4.806,0,0,1-4.2-2.746c-3.416-5.812-3.762-25.273,3.909-34.114,3.989-4.6,9.625-5.714,15.872-3.15,4.43,1.819,5.854,4.932,6.268,7.224,2.08,11.521-17.377,29.926-19.6,31.984a2.872,2.872,0,0,1-1.384.713A4.3,4.3,0,0,1,1348.742,4818.616Zm.273-2.937h0Zm9.005-32.618c-2.384,0-4.318,1.153-5.933,3.49-4.958,7.171-4.56,20.451-3.092,25.123,7.376-7.272,16.922-19,15.871-24.812-.157-.877-.614-2-2.75-2.87A10.9,10.9,0,0,0,1358.021,4783.061Z" transform="translate(-1225.584 -4753.646)" stroke="#000" stroke-width="1"/>
      <path id="패스_129" data-name="패스 129" d="M1341.843,4812.786c-4.747,0-8.994-.806-11.875-2.905-2.54-1.845-5.208-5.455-3.529-12.18a12.421,12.421,0,0,1,7.314-8.833c13.109-5.557,37.962,8.425,40.756,10.036a2.905,2.905,0,0,1,1.409,2.017c.267,1.525-.518,2.871-2.334,4C1369.54,4807.451,1354.044,4812.786,1341.843,4812.786Zm-.829-19.422a12.843,12.843,0,0,0-4.992.862,6.57,6.57,0,0,0-3.937,4.886c-1.012,4.051.352,5.5,1.651,6.3,6.841,4.223,25.39-.614,33.456-3.823C1360.1,4798.019,1348.934,4793.364,1341.014,4793.364Z" transform="translate(-1255.258 -4734.893)" stroke="#000" stroke-width="1"/>
    </g>
  </g>
</svg>
