<svg xmlns="http://www.w3.org/2000/svg" xmlns:xlink="http://www.w3.org/1999/xlink" width="377" height="377" viewBox="0 0 377 377">
  <defs>
    <clipPath id="clip-아트보드_31">
      <rect width="377" height="377"/>
    </clipPath>
  </defs>
  <g id="아트보드_31" data-name="아트보드 – 31" clip-path="url(#clip-아트보드_31)">
    <g id="그룹_833" data-name="그룹 833" transform="translate(121.552 75.246)">
      <rect id="사각형_12" data-name="사각형 12" width="62.184" height="136.677" rx="10.378" transform="translate(2.553 60.937)" fill="#1ecdd1"/>
      <path id="패스_130" data-name="패스 130" d="M796.561,4799.846c-32.681,0-67.414-7.3-67.414-20.823s34.733-20.823,67.414-20.823,67.412,7.3,67.412,20.823S829.239,4799.846,796.561,4799.846Zm0-36.542c-38.6,0-62.308,9.155-62.308,15.72s23.7,15.719,62.308,15.719,62.308-9.157,62.308-15.719S835.164,4763.3,796.561,4763.3Z" transform="translate(-729.146 -4758.2)" stroke="#000" stroke-width="1"/>
      <path id="패스_131" data-name="패스 131" d="M796.561,4798.45c-32.681,0-67.414-7.3-67.414-20.824a2.553,2.553,0,1,1,5.106,0c0,6.563,23.7,15.718,62.308,15.718a2.553,2.553,0,0,1,0,5.106Z" transform="translate(-729.146 -4733.352)" stroke="#000" stroke-width="1"/>
      <path id="패스_132" data-name="패스 132" d="M759.285,4781.709c-10.1,0-20.967-2.961-20.967-9.458s10.868-9.454,20.967-9.454,20.965,2.959,20.965,9.454S769.382,4781.709,759.285,4781.709Zm0-13.807c-10.408,0-15.861,3.232-15.861,4.349s5.453,4.351,15.861,4.351,15.861-3.232,15.861-4.351S769.691,4767.9,759.285,4767.9Z" transform="translate(-715.637 -4751.428)" stroke="#000" stroke-width="1"/>
      <path id="패스_133" data-name="패스 133" d="M796.561,4859.5c-35.906,0-67.414-16.015-67.414-25.7a2.553,2.553,0,1,1,5.106,0c0,1.648,5.112,6.849,17.424,11.96a121.012,121.012,0,0,0,89.769,0c12.313-5.111,17.423-10.312,17.423-11.96a2.552,2.552,0,1,1,5.1,0C863.973,4843.48,832.466,4859.5,796.561,4859.5Z" transform="translate(-729.146 -4650.613)" stroke="#000" stroke-width="1"/>
      <path id="패스_134" data-name="패스 134" d="M730.179,4832.278" transform="translate(-727.625 -4649.094)" fill="none" stroke="#000" stroke-linecap="round" stroke-linejoin="round" stroke-width="1"/>
      <path id="패스_135" data-name="패스 135" d="M730.179,4776.1" transform="translate(-727.625 -4731.83)" fill="none" stroke="#000" stroke-linecap="round" stroke-linejoin="round" stroke-width="1"/>
      <path id="패스_136" data-name="패스 136" d="M784.157,4919.09a2.554,2.554,0,0,1-2.552-2.556V4777.625a2.552,2.552,0,1,1,5.1,0v138.908A2.553,2.553,0,0,1,784.157,4919.09Z" transform="translate(-651.883 -4733.352)" stroke="#000" stroke-width="1"/>
      <path id="패스_137" data-name="패스 137" d="M796.561,4866.889c-35.906,0-67.414-16.018-67.414-25.7a2.553,2.553,0,0,1,5.106,0c0,1.648,5.112,6.849,17.424,11.96a121.025,121.025,0,0,0,89.769,0c12.313-5.111,17.423-10.312,17.423-11.96a2.552,2.552,0,1,1,5.1,0C863.973,4850.872,832.466,4866.889,796.561,4866.889Z" transform="translate(-729.146 -4639.725)" stroke="#000" stroke-width="1"/>
      <path id="패스_138" data-name="패스 138" d="M731.7,4854.632a2.552,2.552,0,0,1-2.554-2.552V4833.8a2.553,2.553,0,1,1,5.106,0v18.281A2.552,2.552,0,0,1,731.7,4854.632Z" transform="translate(-729.146 -4650.613)" stroke="#000" stroke-width="1"/>
      <path id="패스_139" data-name="패스 139" d="M784.157,4851.551a2.552,2.552,0,0,1-2.552-2.553v-13.1a2.552,2.552,0,1,1,5.1,0V4849A2.552,2.552,0,0,1,784.157,4851.551Z" transform="translate(-651.883 -4647.529)" stroke="#000" stroke-width="1"/>
      <path id="패스_140" data-name="패스 140" d="M762.346,4932.156a2.552,2.552,0,0,1-1.639-4.509c.213-.182,21.887-19.208,15.653-67.015-6.588-50.535,16.417-78.166,17.4-79.321a2.554,2.554,0,0,1,3.888,3.313h0c-.227.268-22.5,27.188-16.222,75.346,6.622,50.8-16.454,70.764-17.441,71.59A2.54,2.54,0,0,1,762.346,4932.156Z" transform="translate(-684.009 -4725.477)" stroke="#000" stroke-width="1"/>
    </g>
  </g>
</svg>
