<svg xmlns="http://www.w3.org/2000/svg" xmlns:xlink="http://www.w3.org/1999/xlink" width="377" height="377" viewBox="0 0 377 377">
  <defs>
    <clipPath id="clip-아트보드_33">
      <rect width="377" height="377"/>
    </clipPath>
  </defs>
  <g id="아트보드_33" data-name="아트보드 – 33" clip-path="url(#clip-아트보드_33)">
    <g id="그룹_835" data-name="그룹 835" transform="translate(131.382 42.686)">
      <path id="패스_100" data-name="패스 100" d="M1269.148,4939.223c0,13.539-8.9,24.513-19.888,24.513h0c-10.986,0-19.892-10.974-19.892-24.513V4818.534c0-13.539,8.906-24.513,19.892-24.513h0c10.987,0,19.888,10.975,19.888,24.513" transform="translate(-1166.593 -4679.28)" fill="#1ecdd1"/>
      <path id="패스_101" data-name="패스 101" d="M1244.021,4777.57c-11.715,0-24.327-3.269-24.327-10.437s12.613-10.437,24.327-10.437,24.331,3.268,24.331,10.438S1255.74,4777.57,1244.021,4777.57Zm-17.894-10.437c1.027,1.313,7.132,4.089,17.894,4.089s16.87-2.776,17.9-4.089c-1.027-1.315-7.132-4.089-17.9-4.089S1227.155,4765.817,1226.128,4767.132Zm35.908.186h0Z" transform="translate(-1186.655 -4756.695)" stroke="#000" stroke-width="1"/>
      <path id="패스_102" data-name="패스 102" d="M1269.332,4870.066c-32.732,0-60.386-23.671-60.386-51.7a3.172,3.172,0,0,1,6.345,0c0,24.162,25.253,45.354,54.041,45.354a3.171,3.171,0,1,1,0,6.343Z" transform="translate(-1208.946 -4635.358)" stroke="#000" stroke-width="1"/>
      <path id="패스_103" data-name="패스 103" d="M1265.977,4871.082c-31.887,0-56.87-11.315-56.87-25.752a3.174,3.174,0,1,1,6.347,0c0,9.175,20.75,19.408,50.522,19.408s50.523-10.233,50.523-19.408a3.173,3.173,0,1,1,6.346,0C1322.846,4859.767,1297.867,4871.082,1265.977,4871.082Z" transform="translate(-1208.61 -4579.454)" stroke="#000" stroke-width="1"/>
      <path id="패스_104" data-name="패스 104" d="M1220.133,4787" transform="translate(-1185.744 -4693.847)" fill="none" stroke="#000" stroke-linecap="round" stroke-linejoin="round" stroke-width="1"/>
      <path id="패스_105" data-name="패스 105" d="M1212.119,5016.657a3.172,3.172,0,0,1-3.173-3.172V4890.556a37.534,37.534,0,0,1,10.387-25.984l12.189-12.809c6.331-6.654,9.966-14.531,9.966-21.611V4762.71a3.172,3.172,0,1,1,6.344,0v67.442c0,11.9-7.337,21.387-11.712,25.985l-12.188,12.807a31.216,31.216,0,0,0-8.641,21.611v122.929A3.172,3.172,0,0,1,1212.119,5016.657Z" transform="translate(-1208.946 -4750.8)" stroke="#000" stroke-width="1"/>
      <path id="패스_106" data-name="패스 106" d="M1235.158,4764.753" transform="translate(-1154.583 -4739.984)" fill="none" stroke="#000" stroke-linecap="round" stroke-linejoin="round" stroke-width="1"/>
      <path id="패스_107" data-name="패스 107" d="M1234.921,4787" transform="translate(-1155.074 -4693.847)" fill="none" stroke="#000" stroke-linecap="round" stroke-linejoin="round" stroke-width="1"/>
      <path id="패스_108" data-name="패스 108" d="M1245.076,4842.149" transform="translate(-1134.013 -4579.467)" fill="none" stroke="#000" stroke-linecap="round" stroke-linejoin="round" stroke-width="1"/>
      <path id="패스_109" data-name="패스 109" d="M1269.172,4948.8a3.174,3.174,0,0,1-3.173-3.173v-55.069a31.214,31.214,0,0,0-8.64-21.611l-12.189-12.807c-4.374-4.595-11.711-14.084-11.711-25.985V4762.71a3.174,3.174,0,0,1,6.347,0v67.442c0,7.081,3.631,14.957,9.963,21.611l12.188,12.809a37.535,37.535,0,0,1,10.387,25.984v55.069A3.173,3.173,0,0,1,1269.172,4948.8Z" transform="translate(-1158.108 -4750.8)" stroke="#000" stroke-width="1"/>
      <path id="패스_110" data-name="패스 110" d="M1219.9,4764.753" transform="translate(-1186.235 -4739.984)" fill="none" stroke="#000" stroke-linecap="round" stroke-linejoin="round" stroke-width="1"/>
      <path id="패스_111" data-name="패스 111" d="M1248.271,4862.433a30.626,30.626,0,1,1,30.629-30.627A30.661,30.661,0,0,1,1248.271,4862.433Zm0-54.907a24.279,24.279,0,1,0,24.281,24.28A24.309,24.309,0,0,0,1248.271,4807.526Z" transform="translate(-1190.905 -4664.436)" stroke="#000" stroke-width="1"/>
    </g>
  </g>
</svg>
