<svg xmlns="http://www.w3.org/2000/svg" xmlns:xlink="http://www.w3.org/1999/xlink" width="377" height="377" viewBox="0 0 377 377">
  <defs>
    <clipPath id="clip-아트보드_25">
      <rect width="377" height="377"/>
    </clipPath>
  </defs>
  <g id="아트보드_25" data-name="아트보드 – 25" clip-path="url(#clip-아트보드_25)">
    <g id="그룹_825" data-name="그룹 825" transform="translate(62.272 70.771)">
      <path id="패스_909" data-name="패스 909" d="M100.267,0A100.266,100.266,0,1,1,0,100.266,100.266,100.266,0,0,1,100.267,0Z" transform="translate(25.02 18.033)" fill="none"/>
      <ellipse id="타원_187" data-name="타원 187" cx="68.898" cy="68.898" rx="68.898" ry="68.898" transform="translate(57.102 48.604)" fill="#1ecdd1"/>
      <path id="패스_492" data-name="패스 492" d="M110.768,189.017a101.314,101.314,0,0,1,145.757,91.006" transform="translate(-29.253 -162.521)" fill="none" stroke="#000" stroke-linecap="round" stroke-linejoin="round" stroke-width="6"/>
      <path id="패스_493" data-name="패스 493" d="M292.27,293.1A101.286,101.286,0,1,1,125.984,186.447" transform="translate(-71.008 -141.138)" fill="none" stroke="#000" stroke-linecap="round" stroke-linejoin="round" stroke-width="6"/>
      <path id="패스_494" data-name="패스 494" d="M107.362,200.056h29.406a.8.8,0,0,1,.8.8v5.387a.8.8,0,0,1-.8.8h-21.14a.8.8,0,0,0-.8.8v13.014a.8.8,0,0,0,.8.8h17.646a.8.8,0,0,1,.8.8v5.387a.8.8,0,0,1-.8.8H115.628a.8.8,0,0,0-.8.8V244.8a.8.8,0,0,0,.8.8H137.55a.8.8,0,0,1,.8.8v5.387a.8.8,0,0,1-.8.8H107.362a.8.8,0,0,1-.8-.8V200.857A.8.8,0,0,1,107.362,200.056Z" transform="translate(-40.939 -103.336)" stroke="#000" stroke-width="0.8"/>
      <path id="패스_495" data-name="패스 495" d="M131.233,207.041h-13.8a.8.8,0,0,1-.8-.8v-5.387a.8.8,0,0,1,.8-.8h37.532a.8.8,0,0,1,.8.8v5.387a.8.8,0,0,1-.8.8H141.1a.8.8,0,0,0-.8.8v43.942a.8.8,0,0,1-.8.8h-6.672a.8.8,0,0,1-.8-.8V207.842A.8.8,0,0,0,131.233,207.041Z" transform="translate(-12.954 -103.336)" stroke="#000" stroke-width="0.8"/>
      <path id="패스_496" data-name="패스 496" d="M128.107,227.177c0-17.1,10.4-27.366,23.66-27.366a20.172,20.172,0,0,1,14.4,6.1.8.8,0,0,1,.026,1.077l-3.468,4.072a.8.8,0,0,1-1.16.049,13.646,13.646,0,0,0-9.652-4.1c-9.055,0-15.322,7.552-15.322,19.882,0,12.47,5.84,20.1,15.107,20.1a14.853,14.853,0,0,0,10.993-4.9.816.816,0,0,1,1.209.034l3.377,3.978a.805.805,0,0,1-.015,1.062,20.616,20.616,0,0,1-15.851,7.027C138.224,254.188,128.107,244.354,128.107,227.177Z" transform="translate(18.91 -104.017)" stroke="#000" stroke-width="0.8"/>
    </g>
  </g>
</svg>
