<svg xmlns="http://www.w3.org/2000/svg" xmlns:xlink="http://www.w3.org/1999/xlink" width="377" height="377" viewBox="0 0 377 377">
  <defs>
    <clipPath id="clip-아트보드_29">
      <rect width="377" height="377"/>
    </clipPath>
  </defs>
  <g id="아트보드_29" data-name="아트보드 – 29" clip-path="url(#clip-아트보드_29)">
    <g id="그룹_830" data-name="그룹 830" transform="translate(108.356 52.323)">
      <path id="패스_897" data-name="패스 897" d="M2185.153,976.479h-154.1l48.073-100.739h57.953Z" transform="translate(-2027.766 -872.309)" fill="none"/>
      <path id="패스_898" data-name="패스 898" d="M2089.777,1050.792l-34.469,14.869h84.482l-34.046-14.869" transform="translate(-2017.21 -796.122)" fill="#fff"/>
      <ellipse id="타원_222" data-name="타원 222" cx="6.538" cy="6.538" rx="6.538" ry="6.538" transform="translate(94.828 168.838)" fill="#fff"/>
      <path id="패스_497" data-name="패스 497" d="M388.7,163.674v63.542h-60.85l30.937-63.542Z" transform="translate(-312.319 -148.216)" fill="#1ecdd1"/>
      <path id="패스_498" data-name="패스 498" d="M476.836,259.392h-154.1l48.072-100.739h57.953Z" transform="translate(-319.45 -155.22)" fill="none" stroke="#000" stroke-linecap="round" stroke-linejoin="round" stroke-width="6"/>
      <line id="선_212" data-name="선 212" y2="137.991" transform="translate(80.337 104.171)" fill="none" stroke="#000" stroke-linecap="round" stroke-linejoin="round" stroke-width="6"/>
      <path id="패스_499" data-name="패스 499" d="M371.741,263.55l-34.468,14.869h84.481L387.708,263.55" transform="translate(-299.176 -8.88)" fill="rgba(0,0,0,0)" stroke="#000" stroke-linecap="round" stroke-linejoin="round" stroke-width="6"/>
      <line id="선_213" data-name="선 213" x2="85.832" transform="translate(15.532 79.951)" fill="none" stroke="#000" stroke-linecap="round" stroke-linejoin="round" stroke-width="6"/>
      <line id="선_214" data-name="선 214" x2="10.592" transform="translate(114.544 79.951)" fill="none" stroke="#000" stroke-linecap="round" stroke-linejoin="round" stroke-width="6"/>
      <line id="선_215" data-name="선 215" y2="54.053" transform="translate(101.363 104.171)" fill="none" stroke="#000" stroke-linecap="round" stroke-linejoin="round" stroke-width="6"/>
      <ellipse id="타원_188" data-name="타원 188" cx="6.538" cy="6.538" rx="6.538" ry="6.538" transform="translate(94.826 168.838)" fill="rgba(0,0,0,0)" stroke="#000" stroke-linecap="round" stroke-linejoin="round" stroke-width="6"/>
    </g>
  </g>
</svg>
